<?xml version="1.0" encoding="utf-8"?>
<svg version="1.1" id='call'  xmlns="http://www.w3.org/2000/svg" xmlns:xlink="http://www.w3.org/1999/xlink" x="0px" y="0px"
	 viewBox="0 0 22 22" style="enable-background:new 0 0 22 22;" xml:space="preserve">
<style type="text/css">
	.st0{opacity:0.7;}
</style>
<g class="st0">
	<path d="M18.3,14.1c-1.1,0-2.2-0.2-3.2-0.5c-0.3-0.1-0.7,0-0.9,0.2l-1.4,1.8c-2.6-1.2-5-3.6-6.3-6.3l1.8-1.5
		c0.2-0.3,0.3-0.6,0.2-0.9c-0.3-1-0.5-2.1-0.5-3.2c0-0.5-0.4-0.9-0.9-0.9H3.8C3.3,2.8,2.8,3,2.8,3.7c0,8.5,7.1,15.6,15.6,15.6
		c0.7,0,0.9-0.6,0.9-1.1V15C19.3,14.5,18.8,14.1,18.3,14.1z" fill="currentColor"/>
</g>
</svg>
