<?xml version="1.0" encoding="utf-8"?><svg viewBox="0 0 30 30" xmlns="http://www.w3.org/2000/svg" xmlns:xlink="http://www.w3.org/1999/xlink"><style>:root>svg{display:none}:root>svg:target{display:block}</style><svg viewBox="0 0 19 14" id="Arrow-right" xmlns="http://www.w3.org/2000/svg"><path d="M12.3.9l6.4 5.4c.4.4.4 1 0 1.4l-6.4 5.4c-.4.4-1 .4-1.4 0-.4-.4-.4-1 0-1.4L15.6 8H1c-.6 0-1-.4-1-1s.4-1 1-1h14.6l-4.7-3.7c-.4-.4-.4-1 0-1.4.4-.4 1.1-.4 1.4 0z"/></svg><svg viewBox="0 0 12 14" id="calendar" xmlns="http://www.w3.org/2000/svg"><path d="M10.7 1.8h-.6V.6H8.9v1.2H3.1V.6H1.9v1.2h-.6C.7 1.8.1 2.3.1 3v9.3c0 .6.5 1.2 1.2 1.2h9.3c.6 0 1.2-.5 1.2-1.2V2.9c0-.6-.5-1.1-1.1-1.1zm0 10.5H1.3V4.7h9.3v7.6z"/></svg><svg viewBox="0 0 22 22" id="call" xmlns="http://www.w3.org/2000/svg"><path d="M18.3 14.1c-1.1 0-2.2-.2-3.2-.5-.3-.1-.7 0-.9.2l-1.4 1.8c-2.6-1.2-5-3.6-6.3-6.3l1.8-1.5c.2-.3.3-.6.2-.9-.3-1-.5-2.1-.5-3.2 0-.5-.4-.9-.9-.9H3.8c-.5 0-1 .2-1 .9 0 8.5 7.1 15.6 15.6 15.6.7 0 .9-.6.9-1.1V15c0-.5-.5-.9-1-.9z"/></svg><svg viewBox="0 0 20 20" id="close-location" xmlns="http://www.w3.org/2000/svg"><circle cx="10" cy="10" r="10"/><path d="M6.207 5.5l8.485 8.485-.707.707L5.5 6.207z"/><path d="M5.59 13.985L14.077 5.5l.707.707-8.485 8.485z"/></svg><svg viewBox="0 0 30 30" id="facebook" xmlns="http://www.w3.org/2000/svg"><path d="M15 0C6.7 0 0 6.8 0 15.1 0 22.6 5.5 28.9 12.7 30V19.5H8.8v-4.4h3.8v-3.3c0-3.8 2.2-5.9 5.7-5.9 1.6 0 3.3.3 3.3.3v3.7h-1.9c-1.9 0-2.4 1.2-2.4 2.3V15h4.2l-.7 4.4h-3.5V30c3.5-.6 6.8-2.4 9.1-5.1 2.3-2.7 3.6-6.2 3.6-9.8C30 6.8 23.3 0 15 0z"/></svg><svg viewBox="0 0 30 30" id="inst" xmlns="http://www.w3.org/2000/svg"><path d="M12.129 15a2.871 2.871 0 105.742 0 2.871 2.871 0 00-5.742 0z"/><path d="M8.286 9.92c.138-.374.358-.712.644-.99.278-.286.616-.507.99-.645.304-.118.76-.258 1.6-.296.908-.041 1.18-.05 3.48-.05s2.573.008 3.48.05c.84.038 1.297.178 1.6.296.374.138.713.359.99.645.286.278.506.616.645.99.118.303.258.76.296 1.6.042.908.05 1.18.05 3.48s-.008 2.572-.05 3.48c-.038.84-.178 1.296-.296 1.6a2.67 2.67 0 01-.645.99 2.667 2.667 0 01-.99.645c-.303.118-.76.258-1.6.296-.907.042-1.18.05-3.48.05s-2.572-.008-3.48-.05c-.84-.038-1.296-.178-1.6-.296a2.852 2.852 0 01-1.634-1.635c-.118-.304-.259-.76-.297-1.6-.041-.908-.05-1.18-.05-3.48s.009-2.572.05-3.48c.038-.84.178-1.296.297-1.6zM15 19.423a4.423 4.423 0 100-8.846 4.423 4.423 0 000 8.846zm-4.598-7.987a1.034 1.034 0 100-2.068 1.034 1.034 0 000 2.068z"/><path d="M15 0c8.283 0 15 6.717 15 15 0 8.283-6.717 15-15 15-8.283 0-15-6.717-15-15C0 6.717 6.717 0 15 0zM6.439 18.551c.041.917.187 1.543.4 2.09a4.404 4.404 0 002.52 2.52c.547.213 1.173.358 2.09.4.918.042 1.212.052 3.55.052 2.34 0 2.633-.01 3.552-.052.917-.042 1.543-.187 2.09-.4a4.22 4.22 0 001.526-.994c.438-.43.777-.95.994-1.525.213-.548.358-1.174.4-2.09.042-.92.052-1.213.052-3.552 0-2.34-.01-2.633-.052-3.551-.041-.917-.187-1.543-.4-2.09a4.22 4.22 0 00-.994-1.526 4.218 4.218 0 00-1.525-.994c-.548-.213-1.174-.358-2.09-.4-.92-.042-1.213-.052-3.552-.052-2.34 0-2.633.01-3.551.052-.917.042-1.543.187-2.09.4a4.222 4.222 0 00-1.527.994 4.22 4.22 0 00-.993 1.525c-.213.548-.359 1.174-.4 2.09-.042.92-.052 1.213-.052 3.552 0 2.34.01 2.633.052 3.551z"/></svg><svg viewBox="0 0 24 24" id="search" xmlns="http://www.w3.org/2000/svg"><path d="M18.444 16.688l-3.212-2.747a6.968 6.968 0 001.456-4.285c0-1.88-.734-3.642-2.06-4.97a6.98 6.98 0 00-4.972-2.061 6.99 6.99 0 00-4.97 2.06 6.975 6.975 0 00-2.061 4.971c0 1.878.734 3.645 2.06 4.971a6.975 6.975 0 004.971 2.06 6.97 6.97 0 004.282-1.453l3.212 2.745a.193.193 0 00.272 0l1.022-1.02a.195.195 0 00.056-.136.193.193 0 00-.056-.136zm-5.075-3.32a5.222 5.222 0 01-3.713 1.538 5.222 5.222 0 01-3.712-1.537 5.222 5.222 0 01-1.538-3.713c0-1.401.546-2.72 1.538-3.712a5.222 5.222 0 013.712-1.538c1.402 0 2.721.544 3.713 1.538a5.222 5.222 0 011.537 3.712 5.218 5.218 0 01-1.537 3.713z" opacity=".7"/></svg><svg viewBox="0 0 12 12" id="time" xmlns="http://www.w3.org/2000/svg"><path d="M6 .167C2.792.167.167 2.792.167 6S2.792 11.833 6 11.833 11.833 9.208 11.833 6 9.208.167 6 .167zM8.45 8.45L5.417 6.583v-3.5h.875v3.034l2.625 1.575-.467.758z"/></svg><svg viewBox="0 0 30 30" id="vk" xmlns="http://www.w3.org/2000/svg"><path d="M15 0C6.716 0 0 6.716 0 15c0 8.284 6.716 15 15 15 8.284 0 15-6.716 15-15 0-8.284-6.716-15-15-15zm7.609 16.622c.699.683 1.439 1.326 2.066 2.08.278.333.54.677.74 1.065.285.553.027 1.159-.467 1.192l-3.073-.001c-.794.066-1.426-.255-1.958-.797-.425-.433-.82-.894-1.229-1.342a2.871 2.871 0 00-.553-.492c-.42-.272-.783-.189-1.023.249-.245.445-.3.939-.324 1.434-.033.725-.252.914-.979.948-1.554.073-3.028-.163-4.398-.946-1.208-.69-2.144-1.666-2.959-2.77-1.587-2.152-2.803-4.514-3.895-6.944-.246-.547-.066-.84.538-.85a85.522 85.522 0 013.009-.002c.408.007.678.24.835.625.542 1.334 1.206 2.603 2.039 3.78.222.313.448.625.77.846.357.245.628.164.796-.233.107-.253.154-.523.177-.794.08-.927.09-1.854-.049-2.777-.086-.578-.41-.951-.987-1.06-.293-.056-.25-.165-.108-.332.248-.29.48-.47.944-.47h3.472c.547.107.67.353.744.904l.003 3.859c-.006.213.107.845.49.985.307.101.51-.145.693-.34.833-.883 1.426-1.926 1.957-3.005.235-.476.437-.969.634-1.462.146-.365.373-.545.785-.539l3.343.004c.099 0 .199.001.296.018.564.097.718.339.544.889-.275.863-.808 1.583-1.329 2.304-.558.772-1.154 1.517-1.707 2.293-.508.709-.468 1.066.163 1.681z"/></svg></svg>